<svg xmlns="http://www.w3.org/2000/svg" width="1024" height="1024" viewBox="0 0 1024 1024">
    <g transform="scale(1.5) translate(-175 -150)">
        <path
            d="M 404.83 785.98 C397.12,784.68 388.96,782.01 382.55,778.71 L 376.50 775.58 L 383.09 774.89 C407.37,772.34 423.37,762.11 438.99,739.15 C444.81,730.59 452.12,713.93 456.41,699.43 C461.51,682.16 465.28,664.57 469.05,638.64 C467.73,648.05 466.53,655.82 465.57,660.96 C463.69,671.01 463.35,674.60 464.23,675.14 C464.90,675.56 466.00,675.02 466.79,673.89 C468.36,671.64 470.85,672.00 475.25,675.11 C477.11,676.43 480.32,677.22 485.25,677.56 C489.24,677.84 494.52,678.43 497.00,678.88 C502.87,679.93 507.61,679.52 512.25,677.56 C515.69,676.10 516.00,676.11 516.00,677.59 C516.00,678.66 516.54,679.01 517.58,678.61 C518.45,678.27 519.54,678.00 520.00,678.00 C520.67,678.00 522.60,670.64 524.46,661.48 C521.42,678.07 517.80,692.55 513.51,705.50 C502.72,738.05 483.73,763.55 460.64,776.46 C445.29,785.05 422.42,788.95 404.83,785.98 ZM 534.17 575.88 C533.28,589.53 532.23,602.22 531.02,614.05 C532.23,601.89 533.33,588.68 534.17,575.88 Z"
            fill="rgba(29,124,85,1)" />
        <path
            d="M 497.00 678.88 C494.52,678.43 489.24,677.84 485.25,677.56 C480.32,677.22 477.11,676.43 475.25,675.11 C470.85,672.00 468.36,671.64 466.79,673.89 C466.00,675.02 464.90,675.56 464.23,675.14 C463.35,674.60 463.69,671.01 465.57,660.96 C468.13,647.24 472.43,614.84 475.98,582.50 C476.04,582.02 476.09,581.55 476.14,581.07 C475.46,587.96 475.00,593.77 475.00,596.23 C475.00,602.00 476.67,604.96 477.70,601.03 C478.17,599.26 478.76,598.97 480.89,599.49 C484.62,600.41 488.00,602.80 488.00,604.52 C488.00,605.34 488.34,605.92 488.75,605.83 C489.50,605.65 492.07,606.65 499.50,610.00 C507.92,613.80 509.74,614.24 517.68,614.38 C522.18,614.46 526.19,614.86 526.60,615.26 C527.51,616.18 528.19,616.17 529.62,615.23 C530.57,614.61 531.59,608.25 532.66,596.11 C530.85,617.75 528.52,638.37 526.40,651.00 C524.17,664.29 520.92,678.00 520.00,678.00 C519.54,678.00 518.45,678.27 517.58,678.61 C516.54,679.01 516.00,678.66 516.00,677.59 C516.00,676.11 515.69,676.10 512.25,677.56 C507.61,679.52 502.87,679.93 497.00,678.88 ZM 498.29 445.23 C503.75,422.66 513.21,399.14 525.82,376.69 C523.82,380.47 523.57,381.97 524.75,382.06 C531.20,382.55 534.50,383.27 535.40,384.37 C537.46,386.88 541.44,389.00 544.09,389.00 C545.54,389.00 547.90,389.92 549.33,391.04 L 551.92 393.08 L 548.13 399.82 L 550.82 399.00 C551.83,398.69 554.06,397.76 556.51,396.64 C551.65,399.11 547.00,401.92 542.12,405.24 C532.60,411.71 513.58,430.71 505.04,442.26 C504.02,443.64 503.02,444.96 502.11,446.12 C503.82,443.26 503.98,441.20 502.43,440.61 C501.05,440.08 499.34,442.11 498.29,445.23 ZM 440.00 549.45 C440.00,549.97 435.08,550.75 434.63,550.30 C433.96,549.63 435.16,546.00 436.05,546.00 C436.81,546.00 440.00,548.78 440.00,549.45 ZM 531.55 366.93 C532.13,365.97 532.72,365.02 533.32,364.06 C547.87,340.85 567.73,316.45 587.23,297.38 C567.08,317.10 546.67,342.47 531.55,366.93 ZM 602.76 382.11 C584.80,385.87 572.52,389.35 561.82,394.11 C571.45,389.63 583.14,386.22 602.76,382.11 ZM 498.06 450.83 C497.92,450.94 497.83,451.00 497.78,451.00 C497.37,451.00 497.26,449.98 497.50,448.67 C497.29,450.26 497.48,450.98 498.06,450.83 ZM 534.01 578.38 C534.05,577.72 534.10,577.06 534.14,576.38 L 535.39 557.26 L 535.40 557.26 L 534.17 575.88 C534.12,576.71 534.06,577.55 534.01,578.38 ZM 478.04 564.33 C478.21,562.87 478.34,561.83 478.40,561.36 L 478.84 558.23 L 478.42 561.36 C478.29,562.34 478.16,563.33 478.04,564.33 Z"
            fill="rgba(53,150,84,1)" />
        <path
            d="M 526.60 615.26 C526.19,614.86 522.18,614.46 517.68,614.38 C509.74,614.24 507.92,613.80 499.50,610.00 C492.07,606.65 489.50,605.65 488.75,605.83 C488.34,605.92 488.00,605.34 488.00,604.52 C488.00,602.80 484.62,600.41 480.89,599.49 C478.76,598.97 478.17,599.26 477.70,601.03 C476.67,604.96 475.00,602.00 475.00,596.23 C475.00,591.53 476.66,574.65 478.42,561.36 L 478.84 558.23 L 462.17 557.75 C444.27,557.23 437.63,555.88 433.38,551.89 C430.63,549.30 430.31,545.43 432.57,542.20 C436.54,536.54 453.11,531.24 469.77,530.32 C475.97,529.97 481.76,529.17 482.63,528.53 C483.52,527.88 485.50,522.46 487.08,516.35 C494.46,487.90 505.65,465.03 521.52,446.00 C539.15,424.85 560.57,410.03 583.91,402.66 C581.58,403.69 582.16,404.59 584.36,406.40 C585.93,407.69 586.77,409.02 586.23,409.36 C585.69,409.69 585.02,410.81 584.75,411.83 C584.31,413.51 584.66,413.61 588.38,412.89 C590.65,412.44 594.07,411.61 595.99,411.04 C598.59,410.27 602.12,409.95 605.22,410.06 C601.56,410.03 597.02,410.69 592.86,411.99 C564.26,420.94 547.98,450.97 539.46,510.50 C538.12,519.85 537.02,528.35 537.01,529.40 C537.03,526.80 541.73,493.91 542.56,490.64 C543.59,486.51 541.59,487.55 539.53,492.19 C538.52,494.50 535.31,498.89 532.40,501.94 C526.38,508.27 518.14,517.59 515.97,520.52 C515.16,521.62 512.70,523.68 510.50,525.12 C507.58,527.02 506.16,528.84 505.25,531.85 C503.75,536.80 503.67,539.27 504.97,540.57 C505.51,541.11 506.09,542.50 506.27,543.67 C506.45,544.85 507.07,546.41 507.66,547.15 C508.25,547.89 509.16,549.84 509.69,551.47 C510.41,553.70 511.45,554.61 513.84,555.10 C515.59,555.46 519.12,557.38 521.68,559.38 C524.24,561.37 527.14,563.00 528.13,563.00 C529.12,563.00 530.41,563.90 531.00,565.00 C533.04,568.81 535.00,567.41 535.00,562.15 L 535.00 557.31 L 535.39 557.26 L 534.14 576.38 C532.50,601.43 531.00,614.33 529.62,615.23 C528.19,616.17 527.51,616.18 526.60,615.26 ZM 627.26 372.84 C627.43,375.10 629.62,374.95 636.50,372.21 C636.88,372.06 637.27,371.91 637.65,371.75 C628.01,375.93 616.81,379.16 602.76,382.11 C581.84,386.49 569.94,390.08 559.93,395.01 C556.39,396.76 552.29,398.55 550.82,399.00 L 548.13 399.82 L 551.92 393.08 L 549.33 391.04 C547.90,389.92 545.54,389.00 544.09,389.00 C541.44,389.00 537.46,386.88 535.40,384.37 C534.50,383.27 531.20,382.55 524.75,382.06 C523.21,381.94 524.11,379.42 528.15,372.56 C535.04,360.83 543.27,348.77 552.21,337.13 C549.34,341.05 549.21,342.00 550.48,342.00 C551.31,342.00 552.21,342.01 552.48,342.03 C552.74,342.04 554.17,343.18 555.65,344.55 C557.13,345.92 559.46,347.33 560.82,347.67 C562.18,348.01 565.82,349.57 568.90,351.13 C571.98,352.70 575.06,353.98 575.75,353.99 C576.43,353.99 580.03,355.38 583.75,357.06 C587.46,358.75 591.90,360.73 593.61,361.48 C595.32,362.22 601.62,363.57 607.61,364.47 C613.60,365.38 619.62,366.54 621.00,367.06 C622.38,367.59 625.41,368.08 627.74,368.17 C631.15,368.30 631.76,368.59 630.86,369.66 C630.25,370.40 629.16,371.00 628.44,371.00 C627.72,371.00 627.19,371.83 627.26,372.84 ZM 484.00 420.89 C481.52,420.41 472.79,419.32 464.58,418.46 C449.94,416.93 433.96,414.51 431.00,413.39 C430.17,413.08 428.38,412.62 427.00,412.38 C424.26,411.89 420.72,410.83 416.77,409.39 C421.88,410.81 425.00,410.34 425.00,408.05 C425.00,406.94 427.71,404.86 432.67,402.17 C436.88,399.87 440.82,398.00 441.42,398.00 C442.01,397.99 444.52,396.65 447.00,395.00 C449.48,393.35 452.05,392.01 452.73,392.00 C453.40,392.00 454.68,390.89 455.57,389.53 C456.47,388.17 459.58,385.85 462.49,384.37 C465.41,382.89 467.69,381.08 467.58,380.32 C467.51,379.87 466.88,378.94 465.86,377.70 C470.09,382.42 473.88,387.15 476.41,391.00 C482.63,400.45 489.80,415.00 490.26,419.12 C490.56,421.77 489.72,422.01 484.00,420.89 ZM 533.81 330.04 C529.12,335.82 524.74,341.73 520.74,347.74 C516.76,353.72 512.93,359.49 512.23,360.56 C510.67,362.93 510.86,348.41 512.00,335.11 C512.00,335.26 512.00,335.40 512.00,335.54 C512.00,340.61 512.13,340.88 514.75,341.18 C516.71,341.41 517.46,342.03 517.35,343.35 C517.22,344.89 517.67,344.73 520.10,342.41 C521.69,340.88 523.00,339.96 523.00,340.37 C523.00,341.91 526.93,338.26 532.62,331.45 C533.02,330.98 533.41,330.51 533.81,330.04 ZM 491.37 366.29 C494.91,376.54 497.41,386.99 496.14,388.26 C495.53,388.87 494.73,388.35 493.94,386.86 C491.43,382.09 480.65,370.02 472.96,363.24 C474.86,364.87 476.73,366.54 478.58,368.27 C485.45,374.68 486.35,375.24 487.47,373.70 C488.16,372.77 489.43,372.00 490.30,372.00 C492.59,372.00 492.92,370.99 491.37,366.29 ZM 497.65 447.75 C498.47,443.28 500.70,439.95 502.43,440.61 C504.29,441.32 503.69,444.14 500.88,447.95 C497.97,451.88 496.90,451.82 497.65,447.75 ZM 440.00 549.45 C440.00,548.78 436.81,546.00 436.05,546.00 C435.16,546.00 433.96,549.63 434.63,550.30 C435.08,550.75 440.00,549.97 440.00,549.45 ZM 595.12 399.73 C596.52,399.43 597.92,399.17 599.33,398.93 C605.18,397.93 615.85,398.03 622.99,398.92 C615.44,398.11 603.10,398.43 595.12,399.73 ZM 513.04 325.56 C513.33,323.48 513.64,321.60 513.97,320.00 C517.35,303.73 522.81,289.60 530.88,276.86 C526.51,283.93 522.86,291.55 519.70,300.00 C516.97,307.33 514.41,317.38 513.04,325.56 ZM 637.81 253.90 C629.71,256.98 620.22,260.88 615.67,263.16 C598.88,271.60 582.22,282.94 566.89,296.12 C582.55,282.48 598.92,271.50 616.66,262.64 C620.80,260.57 629.91,256.88 637.81,253.90 ZM 430.94 348.81 C437.30,352.61 443.13,356.63 448.50,360.90 C451.71,363.45 455.35,366.79 458.99,370.43 C455.79,367.31 452.17,364.03 449.00,361.47 C443.33,356.90 437.38,352.71 430.94,348.81 ZM 730.53 213.51 C724.09,246.55 716.32,273.25 706.46,295.34 C716.19,273.33 724.15,246.27 730.53,213.51 ZM 454.66 318.64 C458.52,320.48 464.60,325.84 470.46,332.12 C464.50,326.03 457.70,320.08 454.66,318.64 ZM 578.30 306.47 C587.60,296.65 597.01,287.83 606.00,280.65 C598.01,287.03 587.69,296.72 578.30,306.47 ZM 669.02 350.35 C661.72,357.46 654.48,363.01 646.23,367.55 C654.02,363.18 661.72,357.35 669.02,350.35 ZM 613.94 430.02 C611.52,426.48 610.71,421.71 612.17,416.81 C610.84,421.27 611.67,426.27 613.94,430.02 ZM 391.55 397.78 C385.94,394.71 380.81,391.54 376.99,388.65 C372.36,385.16 365.67,379.01 359.22,372.54 C365.67,379.01 372.37,385.16 376.99,388.64 C380.52,391.30 385.83,394.59 391.55,397.78 ZM 483.32 348.26 C484.21,349.65 484.98,350.97 485.60,352.19 C486.33,353.63 487.07,355.24 487.80,356.96 C486.42,353.80 484.98,351.00 483.32,348.26 ZM 627.85 399.82 C627.94,399.85 628.03,399.88 628.12,399.90 C632.47,401.25 635.98,403.49 638.47,406.38 C635.94,403.49 632.35,401.24 627.85,399.82 ZM 638.31 429.23 C636.37,431.24 634.70,432.71 633.10,433.75 C634.66,432.65 636.72,430.87 638.31,429.23 ZM 629.94 435.29 C628.79,435.65 627.60,435.83 626.30,435.86 C627.59,435.78 628.84,435.58 629.94,435.29 ZM 387.83 325.50 C381.59,324.55 376.64,324.02 376.24,324.43 C376.64,324.02 381.58,324.55 387.83,325.50 Z"
            fill="rgba(78,169,82,1)" />
        <path
            d="M 627.26 372.84 C627.19,371.83 627.72,371.00 628.44,371.00 C629.16,371.00 630.25,370.40 630.86,369.66 C631.76,368.59 631.15,368.30 627.74,368.17 C625.41,368.08 622.38,367.59 621.00,367.06 C619.62,366.54 613.60,365.38 607.61,364.47 C601.62,363.57 595.32,362.22 593.61,361.48 C591.90,360.73 587.46,358.75 583.75,357.06 C580.03,355.38 576.43,353.99 575.75,353.99 C575.06,353.98 571.98,352.70 568.90,351.13 C565.82,349.57 562.18,348.01 560.82,347.67 C559.46,347.33 557.13,345.92 555.65,344.55 C554.17,343.18 552.74,342.04 552.48,342.03 C552.21,342.01 551.31,342.00 550.48,342.00 C548.34,342.00 550.17,339.28 562.60,324.00 C572.68,311.61 588.99,295.07 601.61,284.29 C589.48,294.91 569.31,315.27 570.78,315.76 C571.46,315.99 571.77,316.56 571.48,317.03 C571.19,317.50 572.54,317.62 574.48,317.31 C576.41,317.00 578.00,317.14 578.00,317.64 C578.00,319.12 588.95,324.29 596.00,326.14 C597.92,326.65 602.65,327.45 606.50,327.92 C613.83,328.82 616.27,329.31 621.40,330.91 C624.41,331.85 636.41,333.75 642.50,334.25 C650.36,334.90 677.21,333.27 677.94,332.10 C678.36,331.42 679.56,330.71 680.60,330.51 C681.65,330.31 682.72,330.07 683.00,329.96 C683.71,329.69 685.31,329.33 686.61,329.15 C687.04,329.09 687.75,328.42 688.68,327.28 C673.78,348.55 655.07,364.83 636.50,372.21 C629.62,374.95 627.43,375.10 627.26,372.84 ZM 531.00 565.00 C530.41,563.90 529.12,563.00 528.13,563.00 C527.14,563.00 524.24,561.37 521.68,559.38 C519.12,557.38 515.59,555.46 513.84,555.10 C511.45,554.61 510.41,553.70 509.69,551.47 C509.16,549.84 508.25,547.89 507.66,547.15 C507.07,546.41 506.45,544.85 506.27,543.67 C506.09,542.50 505.51,541.11 504.97,540.57 C503.67,539.27 503.75,536.80 505.25,531.85 C506.16,528.84 507.58,527.02 510.50,525.12 C512.70,523.68 515.16,521.62 515.97,520.52 C518.14,517.59 526.38,508.27 532.40,501.94 C535.31,498.89 538.52,494.50 539.53,492.19 C541.59,487.55 543.59,486.51 542.56,490.64 C541.73,493.91 537.03,526.80 537.01,529.40 C537.00,531.21 537.69,531.27 552.25,530.60 C561.79,530.17 570.88,529.12 578.32,527.66 C573.04,528.86 567.52,529.88 564.09,530.19 C561.75,530.40 560.60,531.05 560.43,532.25 C560.23,533.63 560.96,534.03 563.84,534.12 C565.85,534.18 568.01,534.18 568.64,534.10 C569.27,534.02 570.76,535.84 571.96,538.14 L 574.13 542.32 L 571.59 544.51 C570.18,545.72 569.33,546.99 569.68,547.35 C570.94,548.61 573.90,547.76 577.60,545.38 C576.50,546.18 575.46,546.86 574.50,547.39 C566.76,551.68 556.48,554.73 545.25,556.08 L 535.00 557.31 L 535.00 562.15 C535.00,567.41 533.04,568.81 531.00,565.00 ZM 414.94 408.82 C407.94,406.47 396.02,400.53 386.61,394.94 C387.69,395.31 388.36,395.17 389.09,394.71 C390.14,394.06 391.00,393.18 391.00,392.76 C391.00,392.34 392.05,392.00 393.33,392.00 C398.49,392.00 413.86,382.60 424.75,372.79 C427.09,370.68 430.24,368.43 431.75,367.78 C433.26,367.13 436.63,365.09 439.24,363.23 C443.96,359.86 443.97,359.84 442.24,357.42 C439.81,354.03 428.26,346.73 415.37,340.37 C428.17,346.57 439.02,353.43 449.00,361.47 C456.81,367.77 467.30,378.41 467.58,380.32 C467.69,381.08 465.41,382.89 462.49,384.37 C459.58,385.85 456.47,388.17 455.57,389.53 C454.68,390.89 453.40,392.00 452.73,392.00 C452.05,392.01 449.48,393.35 447.00,395.00 C444.52,396.65 442.01,397.99 441.42,398.00 C440.82,398.00 436.88,399.87 432.67,402.17 C427.71,404.86 425.00,406.94 425.00,408.05 C425.00,410.60 421.12,410.90 414.94,408.82 ZM 586.62 280.60 C567.65,293.99 550.00,310.66 532.62,331.45 C526.93,338.26 523.00,341.91 523.00,340.37 C523.00,339.96 521.69,340.88 520.10,342.41 C517.67,344.73 517.22,344.89 517.35,343.35 C517.46,342.03 516.71,341.41 514.75,341.18 C512.13,340.88 512.00,340.61 512.00,335.54 C512.00,327.70 515.65,310.85 519.70,300.00 C519.79,299.76 519.89,299.51 519.98,299.26 C518.49,303.54 517.77,306.71 518.72,305.50 C519.15,304.94 520.64,304.36 522.03,304.20 C525.59,303.80 541.75,306.73 545.07,308.39 C547.14,309.42 548.15,309.48 549.06,308.63 C550.01,307.77 550.10,307.84 549.47,308.95 C548.38,310.85 553.75,307.00 556.92,303.60 C558.26,302.17 559.76,301.00 560.27,301.00 C560.78,301.00 563.96,298.61 567.35,295.68 C573.60,290.27 580.03,285.24 586.62,280.60 ZM 456.23 319.56 C461.84,323.26 473.37,334.39 478.58,341.32 C483.94,348.45 487.06,354.33 490.46,363.68 C492.98,370.64 492.96,372.00 490.30,372.00 C489.43,372.00 488.16,372.77 487.47,373.70 C486.35,375.24 485.45,374.68 478.58,368.27 C468.99,359.32 458.68,351.64 447.87,345.38 C450.09,346.58 452.61,347.95 455.50,349.52 C459.35,351.62 462.20,353.00 461.83,352.59 C460.19,350.73 470.80,342.64 474.28,343.08 C480.18,343.83 478.51,340.28 468.11,329.96 C463.75,325.63 458.92,321.43 456.23,319.56 ZM 611.71 418.92 C611.81,418.21 611.97,417.50 612.17,416.81 C613.26,413.18 613.19,412.62 611.50,411.38 C609.28,409.75 600.94,409.57 595.99,411.04 C594.07,411.61 590.65,412.44 588.38,412.89 C584.66,413.61 584.31,413.51 584.75,411.83 C585.02,410.81 585.69,409.69 586.23,409.36 C586.77,409.02 585.93,407.69 584.36,406.40 C580.80,403.47 581.49,402.92 591.86,400.37 C595.92,399.38 602.24,398.76 608.55,398.55 C608.42,398.65 608.54,398.77 609.00,398.93 C610.38,399.41 611.11,399.85 610.64,399.90 C610.17,399.96 610.76,400.79 611.95,401.76 C615.21,404.40 615.71,410.58 613.07,415.64 C612.42,416.89 611.98,417.92 611.71,418.92 ZM 376.72 388.44 C368.73,382.34 354.86,368.68 346.56,358.94 C354.42,367.97 368.54,381.81 376.72,388.44 ZM 536.54 268.57 C545.47,256.65 557.02,246.13 572.50,235.39 C557.25,245.97 545.52,256.72 536.54,268.57 ZM 436.40 339.34 C430.52,336.56 424.53,334.18 418.44,332.22 C421.63,333.22 424.67,334.26 426.80,335.10 C430.19,336.44 432.75,337.53 436.40,339.34 ZM 719.52 259.26 C716.67,268.87 713.61,277.81 710.32,286.10 C713.44,278.07 716.70,268.52 719.52,259.26 ZM 730.70 212.67 C730.64,212.95 730.59,213.23 730.53,213.51 C728.96,221.56 727.30,229.28 725.53,236.66 C727.18,229.47 729.12,220.40 730.70,212.67 ZM 617.67 398.56 C621.89,398.72 625.49,399.11 627.60,399.75 C627.77,399.80 627.94,399.85 628.10,399.91 C626.24,399.34 621.84,398.84 617.67,398.56 ZM 618.27 434.43 C615.82,432.99 613.90,430.51 612.74,427.60 C614.02,430.43 616.12,433.07 618.27,434.43 ZM 704.32 300.04 C702.70,303.49 701.03,306.81 699.31,310.00 C698.21,312.05 697.08,314.06 695.90,316.05 C698.70,311.19 701.69,305.52 704.32,300.04 ZM 596.79 522.46 C597.53,523.19 596.47,525.45 594.39,528.36 C596.37,525.38 597.39,523.06 596.79,522.46 ZM 651.69 249.35 C651.35,249.02 645.10,251.15 637.81,253.90 C645.14,251.12 651.33,249.00 651.69,249.35 ZM 638.49 406.40 C641.65,410.03 643.13,414.66 642.63,419.90 C643.12,414.72 641.62,410.05 638.49,406.40 ZM 326.17 329.62 C318.42,317.34 311.78,305.88 312.45,305.22 C311.79,305.88 318.40,317.30 326.17,329.62 ZM 409.62 329.69 C409.55,329.67 409.48,329.66 409.41,329.64 C403.71,328.21 394.93,326.59 387.83,325.50 C394.91,326.58 403.65,328.20 409.30,329.61 C409.40,329.64 409.51,329.66 409.62,329.69 ZM 628.27 264.82 C634.83,260.43 641.45,256.18 646.52,253.15 C641.52,256.14 634.87,260.41 628.27,264.82 ZM 626.09 435.87 C624.36,435.96 622.59,435.85 621.11,435.53 C622.61,435.85 624.37,435.96 626.09,435.87 Z"
            fill="rgba(100,186,73,1)" />
        <path
            d="M 642.50 334.25 C636.41,333.75 624.41,331.85 621.40,330.91 C616.27,329.31 613.83,328.82 606.50,327.92 C602.65,327.45 597.92,326.65 596.00,326.14 C588.95,324.29 578.00,319.12 578.00,317.64 C578.00,317.14 576.41,317.00 574.48,317.31 C572.54,317.62 571.19,317.50 571.48,317.03 C571.77,316.56 571.46,315.99 570.78,315.76 C569.12,315.21 595.31,289.06 606.00,280.60 C608.09,278.95 610.98,276.81 614.33,274.42 C608.15,279.03 602.63,283.52 599.00,287.00 C595.42,290.42 593.27,292.68 594.21,292.03 C595.14,291.37 596.37,291.11 596.93,291.46 C597.49,291.80 599.05,291.36 600.40,290.47 C602.35,289.20 603.31,289.10 604.99,289.99 C607.86,291.53 616.30,294.03 616.83,293.50 C617.07,293.26 618.12,293.53 619.16,294.09 C620.21,294.65 622.34,295.27 623.92,295.46 C625.49,295.66 629.18,296.51 632.13,297.36 C635.09,298.20 639.02,299.25 640.89,299.69 C646.38,301.00 670.69,301.31 671.45,300.08 C671.81,299.49 674.45,299.06 677.31,299.12 C680.16,299.17 685.99,298.49 690.26,297.60 C694.68,296.67 699.67,296.24 701.87,296.60 L 705.65 297.20 C698.96,311.73 688.87,328.84 686.61,329.15 C685.31,329.33 683.71,329.69 683.00,329.96 C682.72,330.07 681.65,330.31 680.60,330.51 C679.56,330.71 678.36,331.42 677.94,332.10 C677.21,333.27 650.36,334.90 642.50,334.25 ZM 379.84 390.81 C376.37,388.41 370.51,383.23 364.38,377.36 C364.88,377.77 365.20,378.00 365.31,378.00 C365.75,378.00 365.92,377.66 365.68,377.25 C364.78,375.73 366.99,372.00 368.78,372.00 C371.77,372.00 384.92,364.88 393.09,358.84 C397.25,355.76 401.69,352.92 402.97,352.51 C404.24,352.11 406.56,350.47 408.11,348.89 C409.66,347.30 411.82,346.00 412.89,346.00 C415.30,346.00 418.26,343.22 417.37,341.79 C417.20,341.52 416.77,341.17 416.12,340.74 C428.70,347.01 439.85,354.10 442.24,357.42 C443.97,359.84 443.96,359.86 439.24,363.23 C436.63,365.09 433.26,367.13 431.75,367.78 C430.24,368.43 427.09,370.68 424.75,372.79 C413.86,382.60 398.49,392.00 393.33,392.00 C392.05,392.00 391.00,392.34 391.00,392.76 C391.00,393.18 390.14,394.06 389.09,394.71 C387.45,395.74 386.15,395.19 379.84,390.81 ZM 601.30 271.06 C589.50,278.11 578.17,286.33 567.35,295.68 C563.96,298.61 560.78,301.00 560.27,301.00 C559.76,301.00 558.26,302.17 556.92,303.60 C553.75,307.00 548.38,310.85 549.47,308.95 C550.10,307.84 550.01,307.77 549.06,308.63 C548.15,309.48 547.14,309.42 545.07,308.39 C541.75,306.73 525.59,303.80 522.03,304.20 C520.64,304.36 519.15,304.94 518.72,305.50 C517.46,307.12 519.15,300.98 521.67,294.78 C528.34,278.36 538.13,264.39 552.36,251.32 C551.65,252.00 550.91,252.70 550.16,253.43 C543.18,260.17 537.00,267.66 537.00,269.37 C537.00,269.60 538.59,269.57 540.54,269.30 C542.80,269.00 544.96,269.40 546.51,270.41 C547.84,271.29 549.86,272.00 551.00,272.00 C553.27,272.00 557.87,273.96 562.50,276.90 C564.19,277.98 568.45,279.13 572.23,279.53 C575.93,279.93 578.74,280.61 578.47,281.05 C578.20,281.49 579.55,281.71 581.49,281.53 C583.60,281.33 588.30,279.10 593.25,275.94 C595.85,274.29 598.54,272.65 601.30,271.06 ZM 619.42 435.03 C615.99,433.64 612.33,428.46 611.61,423.96 C611.08,420.67 611.40,418.84 613.07,415.64 C615.71,410.58 615.21,404.40 611.95,401.76 C610.76,400.79 610.17,399.96 610.64,399.90 C611.11,399.85 610.38,399.41 609.00,398.93 C605.24,397.62 623.75,398.57 628.12,399.91 C637.95,402.93 643.52,410.59 642.63,419.90 C642.19,424.45 641.51,425.92 638.31,429.23 C636.21,431.40 633.28,433.80 631.80,434.58 C628.84,436.13 622.70,436.36 619.42,435.03 ZM 412.39 330.43 C416.70,331.48 420.32,332.50 422.44,333.33 C426.67,334.99 430.37,334.34 431.53,331.73 C432.57,329.39 433.41,328.88 445.23,323.43 C449.49,321.47 453.54,320.18 454.23,320.57 C454.93,320.96 454.60,320.34 453.50,319.20 C452.39,318.05 450.82,316.84 448.87,315.62 C451.26,316.92 453.55,318.10 454.83,318.70 C456.85,319.65 462.83,324.72 468.11,329.96 C478.51,340.28 480.18,343.83 474.28,343.08 C470.80,342.64 460.19,350.73 461.83,352.59 C462.20,353.00 459.35,351.62 455.50,349.52 C437.45,339.68 434.00,337.94 426.80,335.10 C423.32,333.73 417.38,331.81 412.39,330.43 ZM 569.68 547.35 C569.33,546.99 570.18,545.72 571.59,544.51 L 574.13 542.32 L 571.96 538.14 C570.76,535.84 569.27,534.02 568.64,534.10 C568.01,534.18 565.85,534.18 563.84,534.12 C560.96,534.03 560.23,533.63 560.43,532.25 C560.60,531.05 561.75,530.40 564.09,530.19 C571.11,529.56 586.85,525.95 591.43,523.93 C594.03,522.78 596.45,522.11 596.79,522.46 C597.87,523.54 593.70,530.19 588.20,536.14 C580.29,544.70 572.03,549.70 569.68,547.35 ZM 321.47 322.05 C315.94,312.97 311.93,305.74 312.45,305.22 C312.05,305.61 316.33,313.41 321.47,322.05 ZM 376.24 324.43 C376.90,323.77 384.18,324.73 392.89,326.32 C384.46,324.89 376.75,323.92 376.24,324.43 ZM 443.38 312.59 C434.04,308.00 420.58,303.60 408.00,301.37 C420.55,303.60 434.94,308.19 443.38,312.59 ZM 646.52 253.15 C647.84,252.36 649.03,251.59 649.93,250.96 L 651.50 249.32 C651.58,249.31 651.64,249.32 651.67,249.34 C651.76,249.51 651.07,250.13 649.93,250.95 C649.20,251.48 648.29,252.09 647.29,252.71 C645.14,254.05 640.76,256.77 636.68,259.30 C640.28,256.97 643.67,254.85 646.52,253.15 ZM 719.99 257.70 C721.94,250.99 723.80,243.91 725.57,236.50 C724.86,239.60 724.21,242.35 723.66,244.50 C722.60,248.66 721.35,253.13 719.99,257.70 ZM 347.56 360.08 C345.67,357.95 344.08,356.05 342.92,354.50 C341.32,352.36 339.48,349.77 337.53,346.92 C341.21,352.20 344.26,356.20 347.56,360.08 ZM 730.70 212.67 C732.44,203.70 733.74,196.41 733.62,196.29 C733.85,196.52 732.53,203.68 730.70,212.67 ZM 640.72 252.81 C636.43,254.40 631.46,256.34 626.92,258.20 C630.44,256.69 633.93,255.29 637.37,254.03 C638.52,253.60 639.65,253.19 640.72,252.81 ZM 706.63 295.04 L 709.01 289.36 C709.33,288.57 709.66,287.78 709.98,286.97 C709.15,289.11 708.32,291.13 707.52,293.00 C707.24,293.67 706.94,294.35 706.63,295.04 ZM 396.70 332.24 C390.73,329.99 383.98,327.62 377.11,325.40 C384.57,327.81 390.94,330.03 396.70,332.24 Z"
            fill="rgba(121,197,66,1)" />
        <path
            d="M 640.89 299.69 C639.02,299.25 635.09,298.20 632.13,297.36 C629.18,296.51 625.49,295.66 623.92,295.46 C622.34,295.27 620.21,294.65 619.16,294.09 C618.12,293.53 617.07,293.26 616.83,293.50 C616.30,294.03 607.86,291.53 604.99,289.99 C603.31,289.10 602.35,289.20 600.40,290.47 C599.05,291.36 597.49,291.80 596.93,291.46 C596.37,291.11 595.14,291.37 594.21,292.03 C593.27,292.68 595.42,290.42 599.00,287.00 C606.33,279.98 621.33,268.82 634.00,260.96 C634.66,260.55 635.35,260.12 636.05,259.69 C634.27,260.88 633.00,261.93 633.00,262.25 C633.00,263.65 637.07,263.01 641.07,260.96 C643.27,259.84 645.57,259.23 646.18,259.61 C646.80,259.99 650.05,260.39 653.40,260.50 C663.70,260.84 674.44,262.13 675.70,263.17 C676.36,263.72 677.94,263.83 679.20,263.42 C682.25,262.42 688.76,262.85 697.96,264.65 C702.11,265.47 706.96,266.38 708.75,266.68 C710.54,266.97 712.00,267.62 712.00,268.11 C712.00,268.60 713.05,269.00 714.34,269.00 C715.79,269.00 716.50,268.52 717.59,265.62 C714.87,274.23 712.01,282.17 709.01,289.36 L 705.73 297.21 L 701.87 296.60 C699.67,296.24 694.68,296.67 690.26,297.60 C685.99,298.49 680.16,299.17 677.31,299.12 C674.45,299.06 671.81,299.49 671.45,300.08 C670.69,301.31 646.38,301.00 640.89,299.69 ZM 581.55 229.90 C573.74,234.42 568.00,238.29 568.00,239.09 C568.00,240.40 570.42,240.72 573.18,239.77 C574.92,239.18 576.56,239.23 577.86,239.93 C578.97,240.52 581.01,241.00 582.40,241.00 C583.79,241.00 587.31,241.94 590.21,243.09 C593.12,244.24 597.53,245.55 600.00,245.99 C602.47,246.43 606.97,247.74 609.99,248.90 C613.00,250.05 616.15,251.01 616.99,251.01 C619.85,251.04 623.50,253.56 623.50,255.51 C623.50,256.59 624.21,257.60 625.08,257.77 C625.78,257.91 630.05,256.65 635.27,254.82 C621.10,260.22 606.07,267.77 593.25,275.94 C588.30,279.10 583.60,281.33 581.49,281.53 C579.55,281.71 578.20,281.49 578.47,281.05 C578.74,280.61 575.93,279.93 572.23,279.53 C568.45,279.13 564.19,277.98 562.50,276.90 C557.87,273.96 553.27,272.00 551.00,272.00 C549.86,272.00 547.84,271.29 546.51,270.41 C544.96,269.40 542.80,269.00 540.54,269.30 C538.59,269.57 537.00,269.60 537.00,269.37 C537.00,267.66 543.18,260.17 550.16,253.43 C557.60,246.24 562.56,242.23 572.50,235.38 C574.89,233.73 578.00,231.86 581.55,229.90 ZM 356.00 369.25 C347.45,360.46 342.76,354.71 334.49,342.50 C334.95,343.16 335.39,343.78 335.80,344.35 C339.29,349.17 339.33,349.19 340.57,346.87 C341.50,345.13 343.27,344.25 347.66,343.36 C357.94,341.27 361.42,340.15 362.58,338.55 C363.21,337.70 364.48,337.00 365.40,337.00 C368.17,337.00 375.00,333.07 375.00,331.48 C375.00,330.67 375.67,330.00 376.50,330.00 C378.23,330.00 378.46,327.22 377.00,325.37 C377.04,325.38 377.07,325.39 377.11,325.40 C397.01,331.82 415.98,339.55 417.37,341.79 C418.26,343.22 415.30,346.00 412.89,346.00 C411.82,346.00 409.66,347.30 408.11,348.89 C406.56,350.47 404.24,352.11 402.97,352.51 C401.69,352.92 397.25,355.76 393.09,358.84 C384.92,364.88 371.77,372.00 368.78,372.00 C366.99,372.00 364.78,375.73 365.68,377.25 C365.92,377.66 365.75,378.00 365.31,378.00 C364.86,378.00 360.67,374.06 356.00,369.25 ZM 397.20 300.04 C401.29,300.32 404.48,300.74 408.00,301.37 C426.68,304.69 447.30,312.77 453.50,319.20 C454.60,320.34 454.93,320.96 454.23,320.57 C453.54,320.18 449.49,321.47 445.23,323.43 C433.41,328.88 432.57,329.39 431.53,331.73 C430.37,334.34 426.67,334.99 422.44,333.33 C415.52,330.62 392.47,325.86 381.75,324.56 C385.94,324.72 389.47,323.53 389.83,321.65 C390.23,319.56 394.11,315.43 399.81,311.05 C402.37,309.08 403.90,307.19 403.59,306.37 C403.28,305.58 403.71,305.00 404.60,305.00 C406.50,305.00 409.33,302.32 408.18,301.61 C407.76,301.35 402.94,300.66 397.20,300.04 ZM 313.31 304.97 C315.36,304.49 320.84,303.41 327.14,302.27 C336.53,300.56 341.02,299.96 352.15,299.72 C342.41,300.30 333.28,301.21 326.65,302.40 C320.59,303.48 315.31,304.51 313.31,304.97 ZM 620.00 212.71 C614.85,214.40 607.01,217.59 599.60,220.89 C606.85,217.60 614.13,214.64 620.00,212.71 ZM 727.53 227.96 C728.65,222.70 729.85,216.89 730.89,211.68 C730.77,212.28 730.65,212.89 730.53,213.51 C729.57,218.44 728.57,223.26 727.53,227.96 ZM 379.11 324.29 C377.57,324.17 376.56,324.19 376.27,324.40 C376.18,323.98 376.98,323.98 379.11,324.29 ZM 651.66 249.32 C651.44,249.17 647.62,250.37 642.43,252.20 C647.56,250.35 651.46,249.12 651.65,249.32 C651.65,249.32 651.65,249.32 651.66,249.32 ZM 649.88 250.99 C651.03,250.17 651.73,249.54 651.68,249.35 C651.77,249.55 651.33,249.99 649.88,250.99 Z"
            fill="rgba(145,209,59,1)" />
        <path
            d="M 335.80 344.35 C327.70,333.18 311.55,306.11 312.45,305.22 C312.64,305.03 319.02,303.76 326.65,302.40 C343.98,299.30 378.34,298.06 395.99,299.91 C402.24,300.56 407.73,301.33 408.18,301.61 C409.33,302.32 406.50,305.00 404.60,305.00 C403.71,305.00 403.28,305.58 403.59,306.37 C403.90,307.19 402.37,309.08 399.81,311.05 C394.11,315.43 390.23,319.56 389.83,321.65 C389.40,323.86 384.61,325.11 379.52,324.35 C376.20,323.85 375.72,323.98 376.75,325.07 C378.48,326.91 378.32,330.00 376.50,330.00 C375.67,330.00 375.00,330.67 375.00,331.48 C375.00,333.07 368.17,337.00 365.40,337.00 C364.48,337.00 363.21,337.70 362.58,338.55 C361.42,340.15 357.94,341.27 347.66,343.36 C343.27,344.25 341.50,345.13 340.57,346.87 C339.33,349.19 339.29,349.17 335.80,344.35 ZM 712.00 268.11 C712.00,267.62 710.54,266.97 708.75,266.68 C706.96,266.38 702.11,265.47 697.96,264.65 C688.76,262.85 682.25,262.42 679.20,263.42 C677.94,263.83 676.36,263.72 675.70,263.17 C674.44,262.13 663.70,260.84 653.40,260.50 C650.05,260.39 646.80,259.99 646.18,259.61 C645.57,259.23 643.27,259.84 641.07,260.96 C637.07,263.01 633.00,263.65 633.00,262.25 C633.00,261.84 635.14,260.19 637.75,258.60 C649.57,251.37 652.05,249.71 651.65,249.32 C651.41,249.08 645.69,250.96 638.94,253.48 C632.18,256.01 625.94,257.94 625.08,257.77 C624.21,257.60 623.50,256.59 623.50,255.51 C623.50,253.56 619.85,251.04 616.99,251.01 C616.15,251.01 613.00,250.05 609.99,248.90 C606.97,247.74 602.47,246.43 600.00,245.99 C597.53,245.55 593.12,244.24 590.21,243.09 C587.31,241.94 583.79,241.00 582.40,241.00 C581.01,241.00 578.97,240.52 577.86,239.93 C576.56,239.23 574.92,239.18 573.18,239.77 C570.42,240.72 568.00,240.40 568.00,239.09 C568.00,238.21 574.90,233.64 583.86,228.58 C592.11,223.91 610.58,215.81 620.00,212.71 C635.19,207.72 663.56,200.69 673.50,199.44 C675.15,199.23 678.53,198.75 681.00,198.36 C683.47,197.97 686.62,197.57 688.00,197.47 C689.38,197.38 693.42,196.94 697.00,196.51 C702.57,195.84 732.99,195.65 733.62,196.29 C734.04,196.71 727.22,230.50 724.59,241.00 C723.15,246.77 720.78,255.44 719.33,260.25 C716.98,268.01 716.42,269.00 714.34,269.00 C713.05,269.00 712.00,268.60 712.00,268.11 Z"
            fill="rgba(168,219,50,1)" />
    </g>
</svg>